<?xml version="1.0" encoding="UTF-8"?>
<svg xmlns="http://www.w3.org/2000/svg" xmlns:xlink="http://www.w3.org/1999/xlink" width="64px" height="64px" viewBox="0 0 64 64" version="1.1">
<g id="surface1">
<path style=" stroke:none;fill-rule:nonzero;fill:rgb(0%,0%,0%);fill-opacity:1;" d="M 32 41.601562 C 37.300781 41.601562 41.601562 37.300781 41.601562 32 L 41.601562 16 C 41.601562 10.699219 37.300781 6.398438 32 6.398438 C 26.699219 6.398438 22.398438 10.699219 22.398438 16 L 22.398438 32 C 22.398438 37.300781 26.699219 41.601562 32 41.601562 Z M 32 41.601562 "/>
<path style=" stroke:none;fill-rule:nonzero;fill:rgb(0%,0%,0%);fill-opacity:1;" d="M 44.800781 25.601562 L 44.800781 32 C 44.800781 39.058594 39.058594 44.800781 32 44.800781 C 24.941406 44.800781 19.199219 39.058594 19.199219 32 L 19.199219 25.601562 L 16 25.601562 L 16 32 C 16 40.28125 22.324219 47.113281 30.398438 47.921875 L 30.398438 54.398438 L 25.601562 54.398438 L 25.601562 57.601562 L 38.398438 57.601562 L 38.398438 54.398438 L 33.601562 54.398438 L 33.601562 47.921875 C 41.675781 47.113281 48 40.28125 48 32 L 48 25.601562 Z M 44.800781 25.601562 "/>
</g>
</svg>
