<?xml version="1.0" encoding="UTF-8"?>
<svg xmlns="http://www.w3.org/2000/svg" xmlns:xlink="http://www.w3.org/1999/xlink" width="16px" height="16px" viewBox="0 0 16 16" version="1.1">
<g id="surface1">
<path style=" stroke:none;fill-rule:nonzero;fill:rgb(0%,0%,0%);fill-opacity:1;" d="M 8 10.398438 C 9.324219 10.398438 10.398438 9.324219 10.398438 8 L 10.398438 4 C 10.398438 2.675781 9.324219 1.601562 8 1.601562 C 6.675781 1.601562 5.601562 2.675781 5.601562 4 L 5.601562 8 C 5.601562 9.324219 6.675781 10.398438 8 10.398438 Z M 8 10.398438 "/>
<path style=" stroke:none;fill-rule:nonzero;fill:rgb(0%,0%,0%);fill-opacity:1;" d="M 11.199219 6.398438 L 11.199219 8 C 11.199219 9.765625 9.765625 11.199219 8 11.199219 C 6.234375 11.199219 4.800781 9.765625 4.800781 8 L 4.800781 6.398438 L 4 6.398438 L 4 8 C 4 10.070312 5.582031 11.777344 7.601562 11.980469 L 7.601562 13.601562 L 6.398438 13.601562 L 6.398438 14.398438 L 9.601562 14.398438 L 9.601562 13.601562 L 8.398438 13.601562 L 8.398438 11.980469 C 10.417969 11.777344 12 10.070312 12 8 L 12 6.398438 Z M 11.199219 6.398438 "/>
</g>
</svg>
