<?xml version="1.0" encoding="UTF-8"?>
<svg xmlns="http://www.w3.org/2000/svg" xmlns:xlink="http://www.w3.org/1999/xlink" width="32px" height="32px" viewBox="0 0 32 32" version="1.1">
<g id="surface1">
<path style=" stroke:none;fill-rule:nonzero;fill:rgb(0%,0%,0%);fill-opacity:1;" d="M 16 20.800781 C 18.652344 20.800781 20.800781 18.652344 20.800781 16 L 20.800781 8 C 20.800781 5.347656 18.652344 3.199219 16 3.199219 C 13.347656 3.199219 11.199219 5.347656 11.199219 8 L 11.199219 16 C 11.199219 18.652344 13.347656 20.800781 16 20.800781 Z M 16 20.800781 "/>
<path style=" stroke:none;fill-rule:nonzero;fill:rgb(0%,0%,0%);fill-opacity:1;" d="M 22.398438 12.800781 L 22.398438 16 C 22.398438 19.527344 19.527344 22.398438 16 22.398438 C 12.472656 22.398438 9.601562 19.527344 9.601562 16 L 9.601562 12.800781 L 8 12.800781 L 8 16 C 8 20.140625 11.164062 23.558594 15.199219 23.960938 L 15.199219 27.199219 L 12.800781 27.199219 L 12.800781 28.800781 L 19.199219 28.800781 L 19.199219 27.199219 L 16.800781 27.199219 L 16.800781 23.960938 C 20.835938 23.558594 24 20.140625 24 16 L 24 12.800781 Z M 22.398438 12.800781 "/>
</g>
</svg>
